<svg xmlns="http://www.w3.org/2000/svg" viewBox="0 0 32 40" x="0px" y="0px">
    <g>
        <path fill="#fff"
            d="M16.5693,19.61l11.758,8.0662A2.9638,2.9638,0,0,1,27,28H5a2.9626,2.9626,0,0,1-1.3273-.3235L15.43,19.61A1.0078,1.0078,0,0,1,16.5693,19.61ZM28.97,11.52,26,9.9816V7a3,3,0,0,0-3-3H9.0135a3.0047,3.0047,0,0,0-3,3.02l.02,2.9694L6.02,9.9631,2.99,11.53A1.9691,1.9691,0,0,0,2,13.2V25a2.9876,2.9876,0,0,0,.27,1.23L13.38,18.6,4.94,12.77l1.9793-1.05,1.13.7654L8.0127,7.0068A1,1,0,0,1,9.0127,6H23a1,1,0,0,1,1,1v5.582l1.1691-.7915L27.18,12.83l-8.53,5.78,11.08,7.62A2.9876,2.9876,0,0,0,30,25V13.2A1.92,1.92,0,0,0,28.97,11.52ZM15.2091,17.0172c-3.6563.2161-5.2844-3.7739-3.9038-6.6939a5.882,5.882,0,0,1,5.576-3.34c3.6247-.1631,5.1649,3.6095,3.3656,6.4179-.6088,1.1909-2.49,2.0275-3.3568.722a2.16,2.16,0,0,1-3.7249-1.5652c-.0717-2.0413,2.2695-4.5228,4.2623-3.11a.723.723,0,0,1,1.2866.5759l-.5179,3.2751c.9158.0051,1.3717-1.7755,1.3591-2.558-.1923-3.6721-5.9958-2.5983-6.93.1461-1.4017,3.442,1.412,5.9107,4.6976,4.1394a.7023.7023,0,0,1,.5865,1.2753A5.5893,5.5893,0,0,1,15.2091,17.0172Zm.97-6.5451c-1.1539-.1138-2.2928,2.5913-.97,2.8794C16.4466,13.4064,18.0366,10.6887,16.1794,10.4721Z" />
    </g>
</svg>